<svg xmlns="http://www.w3.org/2000/svg" enable-background="new 0 0 300 300" viewBox="0 0 300 300" id="doctor-explain-coronavirus"><path fill="#bdc0e1" d="M258.7,230.2c4-4.2,13.5-18.9,18-30.2c7.6-18.9,12.3-64-34-72.9c-52.1-10-37.1-55.8-82.7-60.9     c-51.6-5.8-52.9,25.6-76.4,35.3s-55,0.3-63.6,55.9c-8,51.4,19.7,67.9,32.6,72.8H258.7z"></path><path fill="#fff" d="M174.3,69.8c0,0-0.3-0.1-0.4-0.2c-0.1,0-0.5-0.2-0.5-0.2v23.1h-46.7V68.9c0,0-0.3,0.1-0.5,0.2     c-0.1,0-0.4,0.2-0.4,0.2v23.3h-9.1v5.7h66.6v-5.7h-9.1V69.8z"></path><rect width="13.2" height="20.5" x="76.6" y="182.3" fill="#f8ad9c" transform="rotate(-54.701 83.173 192.59)"></rect><path fill="#2178bd" d="M82.8,183.6l-7.4-4.7c0,0-10-14.2-15.4-14.2s3.2,7.6,3.2,7.6s-10,0.5-11.7-1.1s-6.8-6-8-1.8       c-1.3,4.2,0,13.5,9.4,15.5c9.4,2,13.6,3.1,13.6,3.1l7.5,6.8l2.5-1.7C79.8,191,82.1,187.6,82.8,183.6L82.8,183.6z"></path><path fill="none" stroke="#246592" stroke-linecap="round" stroke-linejoin="round" stroke-miterlimit="10" stroke-width=".323" d="M44 170.4l5.8 3.5c1.8 1.1 3.8 1.7 5.8 1.7l1 0M43.6 173.8l5.8 3.5c1.8 1.1 3.8 1.7 5.8 1.7l1 0M44.5 177.8l4.8 2.9c1.8 1.1 3.8 1.7 5.8 1.7l1 0"></path><path fill="#4d1e33" d="M196.4,133.7l-20.7-0.6c-1.3-5.5-2.7-11.9-2.5-13.6c0.1-1.1,0.6-1.7,1.1-1.9c1.1-0.5,2-1.3,2.6-2.3            c1.3-2.2,4.7-5.1,12.9-4.2c5.1,0.6,8.9,4.2,9.1,5.6c0.2,1.4-0.4,2.5-0.4,2.5s1.6,0.3,1,3.3            C199.2,124.1,197.8,129.2,196.4,133.7z"></path><rect width="9.6" height="14" x="181.6" y="133.3" fill="#f8ad9c"></rect><path fill="#f8ad9c" d="M177.1,133.9c0,0-1.8-0.3-3.4-1.7c-1.6-1.4-1.2-3.8,0.4-4.3s3.1,1.2,3.1,1.2l0.8-8.3            c0.1-1.2,1.2-2.1,2.4-2.1l12.6,0.4c1.3,0,2.3,1.1,2.3,2.3l-0.1,8c0.1,0,2.9-2.8,4.2-0.4c2,3.6-4.1,5.6-4.1,5.6            s-3.4,7.2-8.6,7.1C180.7,141.6,177.1,133.9,177.1,133.9z"></path><ellipse cx="181.5" cy="124.8" fill="#4d1e33" rx="3" ry=".5" transform="rotate(-.992 181.544 124.813) scale(.99995)"></ellipse><ellipse cx="191.5" cy="125.1" fill="#4d1e33" rx=".5" ry="2.9" transform="rotate(-87.587 191.48 125.072)"></ellipse><path fill="#d08487" d="M186 141.7c-1.5-.1-3-.5-4.3-1.4-.1-.1-.2-.3-.1-.4l0 0c.1-.1.3-.2.4-.1 2.6 1.7 6 1.8 8.6.1.1-.1.3-.1.4.1s.1.3-.1.4C189.6 141.3 187.8 141.8 186 141.7zM175.9 130.6c-.3-1-1.5-1.2-1.6-1.2 0 0-.1 0-.1.1 0 0 0 .1.1.1 0 0 1.2.2 1.5 1.1 0 .1.1.2.1.3-.2.1-.9.4-1.2.3-.3-.2-.3-.5-.3-.5 0 0 0-.1-.1-.1 0 0-.1 0-.1.1 0 0 0 .4.4.6.1 0 .2.1.3.1.4 0 .9-.2 1-.3.1.7-.1 1.3-.1 1.3 0 0 0 .1 0 .1 0 0 0 0 0 0 0 0 .1 0 .1 0C175.9 132.4 176.2 131.5 175.9 130.6zM197 130.6c.3-1 1.5-1.2 1.6-1.2 0 0 .1 0 .1.1 0 0 0 .1-.1.1 0 0-1.2.2-1.5 1.1 0 .1-.1.2-.1.3.2.1.9.4 1.2.3.3-.2.3-.5.3-.5 0 0 0-.1.1-.1 0 0 .1 0 .1.1 0 0 0 .4-.4.6-.1 0-.2.1-.3.1-.4 0-.9-.2-1-.3-.1.7.1 1.3.1 1.3 0 0 0 .1 0 .1 0 0 0 0 0 0 0 0-.1 0-.1 0C197 132.4 196.7 131.5 197 130.6zM187.6 131.5l-.4.1c-.4.1-.8.1-1.2 0l-.6-.2c-.2-.1-.4.2-.2.4l.3.3c.6.6 1.5.5 2.1 0l.2-.2C188 131.7 187.8 131.4 187.6 131.5z"></path><path fill="#fff" d="M179.8,127.6c0,0,0.6,1,1.9,0.9c1.3,0,1.4-0.6,1.9-0.6c0.4,0-0.1-1-0.9-1.2            C180.7,126.1,179.8,127.6,179.8,127.6z"></path><path fill="#2b1d30" d="M183.7,127.6L183.7,127.6c0.2,0,0.3-0.3,0.1-0.4c-0.3-0.3-0.9-0.7-1.8-0.8c-1.7-0.1-2.4,1.1-2.4,1.1            l0.2,0.1c0,0,0.8-0.9,1.8-1C182.7,126.5,183.7,127.6,183.7,127.6z"></path><path fill="#2b1d30" d="M180.7,127.2c0,0.6,0.5,1.1,1.1,1.1c0.6,0,1.1-0.5,1.1-1.1c0-0.6-0.5-0.8-1.1-0.8            C181.2,126.5,180.7,126.6,180.7,127.2z"></path><ellipse cx="182.3" cy="127.3" fill="#fff" rx=".3" ry=".2" transform="matrix(.02708 -.9996 .9996 .02708 50.045 306.072)"></ellipse><path fill="#fff" d="M193.2,127.9c0,0-0.6,0.9-1.9,0.8c-1.3-0.1-1.4-0.7-1.8-0.7c-0.4,0,0.2-1,0.9-1.1            C192.5,126.4,193.2,127.9,193.2,127.9z"></path><path fill="#2b1d30" d="M189.4,127.7L189.4,127.7c-0.2-0.1-0.2-0.3-0.1-0.4c0.3-0.3,0.9-0.7,1.9-0.7c1.7,0,2.3,1.3,2.3,1.3            l-0.2,0.1c0,0-0.7-0.9-1.8-1.1C190.4,126.7,189.4,127.7,189.4,127.7z"></path><path fill="#2b1d30" d="M192.4,127.6c0,0.6-0.5,1.1-1.1,1.1c-0.6,0-1.1-0.5-1.1-1.1s0.5-0.7,1.1-0.7            C191.9,126.8,192.4,127,192.4,127.6z"></path><ellipse cx="190.8" cy="127.6" fill="#fff" rx=".3" ry=".2" transform="matrix(.02708 -.9996 .9996 .02708 58.127 314.84)"></ellipse><path fill="#4d1e33" d="M196.3,116.3c2.8,0.1,4.7,2.7,4.1,5.3c0,0,0,0,0,0c0,0.1-0.1,0.2-0.2,0.3c-0.9,0.5-1.5,1.3-1.5,2.3         l-0.1,2.5c0,0-2.8-0.8-3-2.4c-0.2-1.5-0.2-1.5-0.2-1.5s-4.9,0.7-8.5-0.6c-3.6-1.3-5.2-2.9-5.2-2.9c-0.6,1.2-1.8,2.1-3.3,2.3         l-0.3,0l-1.2,3.8l-1.2,0c0,0-0.2-1.3-0.4-2.9c-0.5-3.5,2.3-6.7,5.9-6.6L196.3,116.3z"></path><g><path fill="#c6e2ef" d="M191.2,129.4c-0.2-0.1-0.4-0.1-0.6-0.2c-2.8-0.9-5.8-0.9-8.5,0c-0.2,0.1-0.4,0.1-0.6,0.2        c-2.1,0.8-4,0.7-4,0.7l0.6,5.9c0,0,1,2.6,3.4,4.3c0,0,0,0,0.1,0.1c2.9,2,6.8,2,9.7,0c0,0,0,0,0.1-0.1c2.4-1.7,3.6-4.3,3.6-4.3        l0.4-5.9C195.2,130.1,193.3,130.2,191.2,129.4z"></path><path fill="#95b9dc" d="M194.8 136l.4-5.9.7.1-.7 5.4C195.2 135.8 195.1 136 194.8 136L194.8 136zM178 136l-.4-5.9-.7.1.7 5.4C177.6 135.8 177.8 136 178 136L178 136zM179 136.4c.6.2 1.2.5 1.8.7l.9.4c.1.1.3.1.4.2.1.1.3.1.4.2 1.2.4 2.5.6 3.7.6.2 0 .3 0 .5 0l.5 0 .5-.1.5-.1c.2 0 .3-.1.5-.1.2 0 .3-.1.5-.1.2 0 .3-.1.4-.1.2 0 .3-.1.5-.2 1.2-.4 2.4-.8 3.7-1.2-1.2.5-2.4 1-3.5 1.5-.1.1-.3.1-.4.2l-.2.1-.1 0c0 0-.1 0-.1 0-.2 0-.3.1-.5.1-.2 0-.3.1-.5.1l-.5.1-.5.1-.5 0c-.2 0-.3 0-.5 0-1.3 0-2.6-.2-3.8-.7-.2-.1-.3-.1-.4-.2-.2-.1-.3-.1-.4-.2l-.9-.4C180.2 137 179.6 136.8 179 136.4zM179 133.7c1.2.4 2.4.8 3.6 1 1.2.2 2.5.3 3.7.3 1.2 0 2.5-.1 3.7-.3.3-.1.6-.1.9-.2l.5-.1.2-.1c.1 0 .2 0 .2-.1.3-.1.6-.2.9-.3l.4-.1c.2 0 .3-.1.5-.1-.1.1-.3.1-.4.2l-.4.2-.1 0-.1 0-.2.1-.4.2c-.1 0-.1.1-.2.1l-.2.1-.4.2c-.2 0-.3.1-.5.1l-.2.1-.1 0-.1 0-.1 0c-1.2.3-2.5.4-3.8.4-1.3 0-2.5-.1-3.8-.4C181.3 134.7 180.2 134.3 179 133.7zM193.4 131.9c-.6-.1-1.2-.2-1.8-.3-.3-.1-.6-.1-.9-.2-.3-.1-.6-.1-.9-.2l-.2-.1-.2-.1c-.1 0-.2 0-.2-.1l-.2-.1-.1 0-.1 0c-.1 0-.1 0-.2-.1l-.2 0c-.1 0-.1 0-.2 0-.3-.1-.6-.1-.9-.1-.3 0-.6 0-.9 0-.6 0-1.2.1-1.8.3-.2 0-.3.1-.5.1l-.2 0-.2 0c-.2 0-.3.1-.5.1-.2 0-.3.1-.5.1-1.2.2-2.5.4-3.7.5 1.2-.3 2.4-.5 3.6-.8.6-.1 1.2-.3 1.8-.4.3-.1.6-.2.9-.2.3-.1.6-.1 1-.1.6 0 1.3 0 1.9.2.3.1.6.1.9.2l.2.1c.1 0 .1 0 .2.1l.2.1.2.1c.3.1.6.2.9.2.3.1.6.1.9.2C192.2 131.6 192.8 131.7 193.4 131.9z"></path></g><path fill="none" stroke="#95b9dc" stroke-linecap="round" stroke-linejoin="round" stroke-miterlimit="10" stroke-width=".646" d="M195.5 130.4L195.5 130.4c.2-.8.5-1.6 1.2-2l.2-.1M177.2 130.4L177.2 130.4c-.1-.8-.4-1.6-1-2.1l-.1-.1"></path><g><polygon fill="#f8ad9c" points="186.5 144.8 199.6 148.2 183.7 164.4 173.6 148.7"></polygon><path fill="#102230" d="M162.2,191.2l-4.2,39h56.1l-4.2-39l1.6,3.9l24.7-1.9c0,0-4.2-16.3-7.5-27          c-2.4-7.8-10.8-14.1-18.8-15.9l-10.4-2.3l-1.6,1.1c-6.8,6.3-17.5,4.7-24.9-0.6h0L162,151c-8,1.8-16.2,7.4-18.6,15.2          c-3.3,10.6-7.5,27-7.5,27l24.7,1.9L162.2,191.2z"></path></g><g><path fill="#fff" d="M226.3 230.2c-1.4-5.6-1.9-11.5-1.6-17.3l.7-13.6 8.4 19.4-4.1 11.5h27.5l1-3.7c1.7-6.4 1.2-13.1-1.5-19.1l-17.7-40c-3.3-7.4-9.9-12.9-17.9-14.6l-21.5-4.8c-.6-.1-1.2.3-1.2 1v81.2H226.3zM149.4 210.4c.4 6.7-.6 13.4-2.8 19.8h29.1v-80.9c0-.8-.7-1.4-1.5-1.2l-20.9 4.4c-6.5 1.3-12.1 5.3-15.5 10.9l-21.5 35.4-27.8-13.5-11.7 17.1 23.4 19.7c10.4 8.7 25.9 7 34.2-3.7l14.5-18.7L149.4 210.4z"></path><path fill="#8a91c8" d="M215.2 151.4l2.3 10.6-9.6 3.4 7.7 9.4c0 0-7.2 11.1-10.8 21.6-3.5 10.5-6.3 19-6.3 19v-66.6c0-.5.5-.9 1-.8L215.2 151.4zM159.1 151.2l-2.4 10.8 9.6 3.4-7.7 9.4c0 0 7.2 11.1 10.8 21.6 3.5 10.5 6.3 19 6.3 19v-66.6c0-.6-.5-1-1.1-.9L159.1 151.2z"></path><line x1="120.7" x2="116.2" y1="203" y2="198.7" fill="none" stroke="#000425" stroke-linecap="round" stroke-linejoin="round" stroke-miterlimit="10" stroke-width=".646"></line><line x1="234" x2="238.2" y1="218.5" y2="216.6" fill="none" stroke="#000425" stroke-linecap="round" stroke-linejoin="round" stroke-miterlimit="10" stroke-width=".646"></line><polygon fill="#8a91c8" points="227.6 204.3 225.4 199.3 225.4 181.6"></polygon><polygon fill="#8a91c8" points="146.8 202.1 148.7 199.6 148.7 181.6"></polygon><path fill="none" stroke="#2a2f7c" stroke-linecap="round" stroke-linejoin="round" stroke-miterlimit="10" stroke-width="1.614" d="M205.3 149.2c0 0 4.5 6.7 6.7 14.7 2.1 7.4 1.7 17.6 1.7 17.6M163 150.3c0 0-3.1 4.8-5.3 12.8-2.1 7.4-1.7 17.6-1.7 17.6M217.7 205.7h5.5v-12.8c0-5.9-4.1-10.6-9.1-10.6h0c-5.4 0-9.8 5.1-9.8 11.4v12h4.7"></path><ellipse cx="218.3" cy="205.7" fill="#2a2e7d" rx="1.3" ry="1.6"></ellipse><ellipse cx="209.1" cy="205.7" fill="#2a2e7d" rx="1.3" ry="1.6"></ellipse><circle cx="155.9" cy="183.9" r="4.7" fill="#5a68af"></circle><circle cx="155.9" cy="183.9" r="2.8" fill="#2a2e7d"></circle></g><g><rect width="57.9" height="33.2" x="88.4" y="114.2" fill="#4c5da9"></rect><rect width="53.9" height="29.2" x="90.3" y="116.2" fill="#fff"></rect><rect width="43.1" height=".4" x="95.1" y="118.3" fill="#ef4923"></rect><path fill="#ef4923" d="M140,131.3c-1.6-3-3.5-3.6-4.4-3.1c-0.5,0.3-0.9,0.6-1.2,0.9c-0.2,0.2-0.5,0-0.4-0.2l0.2-3c0-0.6-0.4-1-1-1     H133h-0.3h-0.2c-0.6,0-1,0.5-1,1l0.2,2.8c0,0.3-0.3,0.5-0.6,0.3c-0.3-0.2-0.6-0.5-1-0.8c-0.9-0.5-2.8,0.1-4.4,3.1     c-1.6,3-1.8,8.7-0.6,10c1.2,1.4,3.5-0.2,4.7-0.7c1.2-0.5,1.6-1.2,2-3.6c0.2-1.5,0.2-3,0.1-3.9c0-0.7,0.2-1.3,0.7-1.8l0,0     c0.1-0.1,0.3-0.1,0.4,0l0.1,0.1c0.4,0.4,0.6,1,0.6,1.5c-0.1,1-0.1,2.5,0.1,4.1c0.4,2.4,0.8,3.1,2,3.6c1.2,0.5,3.6,2.1,4.7,0.7     C141.7,140,141.6,134.3,140,131.3z"></path><rect width="28" height=".4" x="92.6" y="126.6" fill="#ef4923"></rect><rect width="28" height=".4" x="92.6" y="124.8" fill="#ef4923"></rect><rect width="28" height=".4" x="92.6" y="128.6" fill="#ef4923"></rect><rect width="28" height=".4" x="92.6" y="130.5" fill="#ef4923"></rect><rect width="18.4" height=".4" x="92.6" y="134.7" fill="#ef4923"></rect><rect width="18.4" height=".4" x="92.6" y="132.9" fill="#ef4923"></rect><rect width="18.4" height=".4" x="92.6" y="136.7" fill="#ef4923"></rect><rect width="18.4" height=".4" x="92.6" y="138.6" fill="#ef4923"></rect></g><g><path fill="#9576b4" d="M69,139.2c-0.3,0.1,0.1,0.5-0.7,0.6c-0.8,0-1.1-0.1-1.1-0.3c0-0.2,0-0.2,0-0.2l0,0.2     c-0.2-0.6-0.4-1.3-0.8-1.8c0.4-0.2,0.3-0.4,0.6-0.3c0.2,0.2,0.6,0.2,0.7,0c0.1-0.1,0.1-0.7-0.3-1.2c-0.4-0.4-0.8-0.2-0.8,0     s0.1,0.5-0.1,0.6c-0.1,0-0.3,0.2-0.4,0.2c-0.4-0.5-0.8-1-1.3-1.5c0,0,0,0,0,0c0.3-0.3,0.3-0.6,0.5-0.6c0.1,0,0.4,0,0.5-0.1     c0.1-0.1,0.1-0.5-0.2-0.7s-0.6-0.1-0.6,0.2c0,0.3,0.2,0.3-0.2,0.5c-0.1,0.1-0.3,0.2-0.4,0.3c-0.4-0.3-0.8-0.6-1.3-0.8     c0,0,0-0.1,0-0.1c0.1-0.5,0.4-2.2,0.7-2.3c0.3-0.1,0.6,0.1,0.8-0.3s-0.3-0.8-0.7-1c-0.5-0.2-1.1-0.1-1.1,0.3     c0.1,0.4,0.6,0.5,0.1,1.2c-0.4,0.5-0.8,1.2-1.1,1.5c-0.6-0.2-1.2-0.3-1.8-0.4c0,0,0-0.1,0-0.2c0-0.4-0.1-1,0-1     c0.1,0,0.3-0.2,0.3-0.3c0-0.2-0.3-0.4-0.5-0.3c-0.3,0-0.4,0.2-0.5,0.4c0,0.2,0.4,0.2,0.3,0.5c-0.1,0.3-0.1,0.6-0.2,0.9     c-0.1,0-0.1,0-0.2,0c-0.6,0-1.2,0.1-1.8,0.2c-0.1-0.1-0.2-0.2-0.3-0.4c-0.4-0.7-0.7-1-0.4-1.3c0.3-0.3,0.4-0.8-0.5-0.6     c-0.9,0.2-1.1,0.6-1,0.8c0.1,0.3,0.7-0.2,0.7,0.3c0,0.4,0.2,1.1,0.2,1.5c-0.8,0.3-1.5,0.7-2.2,1.2c-0.1,0-0.1-0.1-0.2-0.1     c-0.4-0.3-0.7-0.4-0.7-0.8c0.1-0.4,0-0.6-0.4-0.6s-0.6,0.4-0.7,0.8c-0.1,0.5,0.4,0.3,0.6,0.2c0.2-0.1,0.7,0.5,0.8,0.8     c-0.5,0.5-0.9,1-1.3,1.5c-0.1,0-0.1,0-0.2-0.1c-0.4-0.2-0.7-0.2-0.7-0.4c0-0.2,0-0.5-0.3-0.4c-0.3,0-0.7,0.6-0.4,0.8     c0.3,0.2,0.4-0.2,0.6,0.1c0.1,0.2,0.5,0.4,0.7,0.6c-0.3,0.6-0.6,1.2-0.7,1.8c-0.1,0-0.1,0-0.2,0c-0.6,0-1.8-0.1-2.1-0.3     c-0.2-0.2-0.1-0.7-0.4-0.8s-0.8,0.2-0.8,1.1s0.6,0.5,0.9,0.4c0.2-0.1,1.7,0.5,2.3,0.8c0,0.3-0.1,0.6-0.1,0.9c0,0.2,0,0.4,0,0.7     c-0.3,0.1-0.8,0.3-0.9,0.2c-0.1-0.2-0.1-0.3-0.3-0.3c-0.2,0.1-0.2,0.6,0,0.8s0.3,0,0.3-0.2c0-0.1,0.2-0.1,0.5-0.1     c0.1,0,0.2,0,0.4,0c0.1,0.6,0.2,1.1,0.4,1.6c-0.3,0.2-1.1,0.9-1.3,0.7c-0.3-0.2-0.7-0.5-0.9-0.2c-0.1,0.3,0,1,0.3,1.4     c0.3,0.3,0.9,0.1,0.8-0.2c0-0.3,0.2-0.5,0.4-0.5c0.1,0,0.8-0.1,1.2-0.1c0.2,0.3,0.3,0.6,0.5,0.8c-0.1,0.1-0.2,0.3-0.3,0.3     c-0.2,0-0.4-0.1-0.4,0.1c0.1,0.2,0.2,0.3,0.3,0.3c0.2,0,0-0.1,0.2-0.2c0.1-0.1,0.2-0.2,0.3-0.3c0.3,0.5,0.7,0.9,1.2,1.3     c0,0.1-0.1,0.3-0.2,0.6c-0.5,0.9-0.5,1-1,0.9s-0.6,0.5,0.1,0.9c0.7,0.4,0.9,0.3,0.9,0.1c0-0.3-0.2-0.4-0.1-0.6     c0.2-0.2,0.7-1.1,1.2-1.1c0,0,0,0,0,0c0.5,0.4,1.1,0.7,1.8,0.9c0.1,0.2,0.1,0.4,0,0.7c-0.2,0.8-0.3,1.5-0.5,1.5     c-0.3,0-0.5-0.1-0.4,0.5c0.1,0.6,1.5,0.8,1.4,0.3c-0.1-0.5-0.4-0.5-0.2-1c0.2-0.4,0.7-1.3,1-1.6c0.4,0.1,0.7,0.1,1.1,0.1     c0.1,0.3,0.2,0.8,0.1,0.9c-0.2,0.2-0.4,0.4-0.2,0.5c0.3,0.1,0.5,0.2,0.7,0c0.1-0.2-0.1-0.1-0.1-0.4c-0.1-0.3-0.1-0.9,0.1-1     c0,0,0,0,0,0c0.6,0,1.2-0.1,1.8-0.2c0.3,0.2,0.6,0.9,0.6,1.2c0,0.3-0.2,0.3-0.3,0.5c-0.1,0.2,0,0.4,0.3,0.5     c0.3,0.1,0.9,0,1.2-0.4c0.3-0.4-0.1-0.7-0.4-0.8c-0.3-0.1-0.2-0.4-0.3-1.1c0-0.1,0-0.2,0-0.3c0.5-0.2,0.9-0.4,1.4-0.6     c0,0,0.1,0,0.2,0c0.3,0,0.4,0.3,0.5,0.6c0.1,0.3,0,0.2,0.1,0.4c0.1,0.1,0.5,0.1,0.7-0.4c0.1-0.6-0.4-0.3-0.4-0.3s-0.2,0-0.4-0.3     c0,0,0-0.1-0.1-0.1c0,0,0-0.1,0-0.1c0,0,0,0,0,0c0,0,0-0.1,0-0.1c0.6-0.4,1.1-0.9,1.6-1.4c0.1,0,0.2,0.1,0.4,0.2     c0.2,0.1,0.3,0.2,0.3,0.3c0,0.1-0.1,0.2-0.1,0.4c0,0.1,0,0.2,0.1,0.3c0.1,0.2,0.5,0.1,1-0.3c0.4-0.3,0.4-0.7,0.3-0.9     c-0.1-0.2-0.3-0.3-0.5-0.3c-0.4,0.1-0.4,0.1-0.9-0.4c0,0,0,0-0.1-0.1c0.4-0.5,0.7-1.1,0.9-1.8c0.3,0,0.6,0.1,0.7,0.3     c0.1,0.3,0.4,0.7,0.8,0.2c0.1-0.2,0.1-0.4,0.1-0.5c-0.1-0.2-0.4-0.3-0.5-0.2c-0.2,0.2-0.5,0-0.9-0.3c0.1-0.2,0.1-0.4,0.2-0.6     c0,0,0,0,0-0.1c0-0.2,0.1-0.3,0.1-0.5c0,0,0,0,0,0c0,0,0,0,0-0.1c0.1,0,0.2,0.1,0.2,0.1c0,0.3,0.4,0.3,0.6,0.1     c0.2-0.1,0.2-0.5-0.1-0.5c-0.2,0-0.1,0.2-0.4,0.1c-0.1,0-0.1,0-0.2-0.1c0-0.3,0-0.5,0-0.8c0-0.3,0-0.5,0-0.8     c0.2-0.1,0.4-0.3,0.8-0.4c0.5-0.1,0.6,0,0.7,0.3c0.1,0.3,0.8,0.4,0.8-0.5C69.6,139.4,69.3,139.2,69,139.2z"></path><circle cx="58.5" cy="141.7" r="16" fill="none" stroke="#e01e2f" stroke-miterlimit="10" stroke-width="1.937"></circle><line x1="70.2" x2="46.2" y1="152.7" y2="131.5" fill="none" stroke="#e01e2f" stroke-miterlimit="10" stroke-width="1.937"></line></g><line x1="278.5" x2="21.5" y1="230.2" y2="230.2" fill="none" stroke="#000425" stroke-linecap="round" stroke-linejoin="round" stroke-miterlimit="10" stroke-width=".646"></line></svg>